name rise49.5252peak65.1548fall88.8305.mot
datacolumns 19
datarows 30
range 3.37331500000000 3.42165000000000
endheader
time	ground_force1_vx	ground_force1_vy	ground_force1_vz	ground_force1_px	ground_force1_py	ground_force1_pz	ground_force2_vx	ground_force2_vy	ground_force2_vz	ground_force2_px	ground_force2_py	ground_force2_pz	ground_torque1_x	ground_torque1_y	ground_torque1_z	ground_torque2_x	ground_torque2_y	ground_torque2_z	
3.37331500000000	37.96984400000000	691.86352199999999	52.06656000000000	0.33762400000000	0.00000000000000	0.13664700000000	-0.61920100000000	40.39571400000000	2.43446500000000	-0.00481600000000	0.00000000000000	-0.05794000000000	0.00000000000000	24.05895700000000	0.00000000000000	0.00000000000000	-0.17488000000000	0.00000000000000	
3.37498300000000	37.46943600000000	696.89743399999998	52.35089500000000	0.33661500000000	0.00000000000000	0.13658900000000	-0.13892000000000	33.55646600000000	2.11404500000000	-0.01702200000000	0.00000000000000	-0.05787300000000	0.00000000000000	24.26431900000000	0.00000000000000	0.00000000000000	-0.12656500000000	0.00000000000000	
3.37664900000000	36.97444200000000	701.86739799999998	52.63937300000000	0.33565700000000	0.00000000000000	0.13652900000000	0.21598000000000	27.06008700000000	1.78303900000000	-0.03070500000000	0.00000000000000	-0.05779800000000	0.00000000000000	24.47371900000000	0.00000000000000	0.00000000000000	-0.08882100000000	0.00000000000000	
3.37831200000000	36.48561200000000	706.76730299999997	52.93165500000000	0.33474900000000	0.00000000000000	0.13646800000000	0.45590400000000	21.02247300000000	1.45241000000000	0.00000000000000	0.00000000000000	0.00000000000000	0.00000000000000	24.68683800000000	0.00000000000000	0.00000000000000	-0.01881400000000	0.00000000000000	
3.37998400000000	36.00360700000000	711.59099000000003	53.22730900000000	0.33389100000000	0.00000000000000	0.13640500000000	0.59455800000000	15.55030100000000	1.13309900000000	0.00000000000000	0.00000000000000	0.00000000000000	0.00000000000000	24.90330200000000	0.00000000000000	0.00000000000000	0.00140500000000	0.00000000000000	
3.38165100000000	35.52900000000000	716.33228199999996	53.52580800000000	0.33308200000000	0.00000000000000	0.13634100000000	0.64805500000000	10.73155900000000	0.83521200000000	0.00000000000000	0.00000000000000	0.00000000000000	0.00000000000000	25.12268700000000	0.00000000000000	0.00000000000000	0.01497600000000	0.00000000000000	
3.38331200000000	35.06228100000000	720.98500799999999	53.82654400000000	0.33232200000000	0.00000000000000	0.13627500000000	0.63386200000000	6.62786500000000	0.56728500000000	0.00000000000000	0.00000000000000	0.00000000000000	0.00000000000000	25.34452000000000	0.00000000000000	0.00000000000000	0.02288800000000	0.00000000000000	
3.38498500000000	34.60385400000000	725.54302900000005	54.12882500000000	0.33160700000000	0.00000000000000	0.13620800000000	0.56969900000000	3.26957800000000	0.33574700000000	0.00000000000000	0.00000000000000	0.00000000000000	0.00000000000000	25.56828300000000	0.00000000000000	0.00000000000000	0.02619000000000	0.00000000000000	
3.38664700000000	34.15404200000000	730.00026500000001	54.43188900000000	0.33093800000000	0.00000000000000	0.13614000000000	0.00000000000000	0.00000000000000	0.00000000000000	0.00000000000000	0.00000000000000	0.00000000000000	0.00000000000000	25.79342000000000	0.00000000000000	0.00000000000000	0.00000000000000	0.00000000000000	
3.38831900000000	33.71309000000000	734.35072200000002	54.73490800000000	0.33031300000000	0.00000000000000	0.13607000000000	0.00000000000000	0.00000000000000	0.00000000000000	0.00000000000000	0.00000000000000	0.00000000000000	0.00000000000000	26.01933600000000	0.00000000000000	0.00000000000000	0.00000000000000	0.00000000000000	
3.38998100000000	33.28116500000000	738.58851400000003	55.03699400000000	0.32972900000000	0.00000000000000	0.13599900000000	0.00000000000000	0.00000000000000	0.00000000000000	0.00000000000000	0.00000000000000	0.00000000000000	0.00000000000000	26.24540800000000	0.00000000000000	0.00000000000000	0.00000000000000	0.00000000000000	
3.39165300000000	32.85836100000000	742.70789000000002	55.33721100000000	0.32918600000000	0.00000000000000	0.13592600000000	0.00000000000000	0.00000000000000	0.00000000000000	0.00000000000000	0.00000000000000	0.00000000000000	0.00000000000000	26.47098000000000	0.00000000000000	0.00000000000000	0.00000000000000	0.00000000000000	
3.39331100000000	32.44470400000000	746.70325800000001	55.63457700000000	0.32868000000000	0.00000000000000	0.13585200000000	0.00000000000000	0.00000000000000	0.00000000000000	0.00000000000000	0.00000000000000	0.00000000000000	0.00000000000000	26.69537800000000	0.00000000000000	0.00000000000000	0.00000000000000	0.00000000000000	
3.39498500000000	32.04015000000000	750.56920900000000	55.92807900000000	0.32821000000000	0.00000000000000	0.13577700000000	0.00000000000000	0.00000000000000	0.00000000000000	0.00000000000000	0.00000000000000	0.00000000000000	0.00000000000000	26.91790700000000	0.00000000000000	0.00000000000000	0.00000000000000	0.00000000000000	
3.39664400000000	31.64459600000000	754.30053799999996	56.21667500000000	0.32777400000000	0.00000000000000	0.13570100000000	0.00000000000000	0.00000000000000	0.00000000000000	0.00000000000000	0.00000000000000	0.00000000000000	0.00000000000000	27.13785800000000	0.00000000000000	0.00000000000000	0.00000000000000	0.00000000000000	
3.39831400000000	31.25787900000000	757.89226499999995	56.49930700000000	0.32737000000000	0.00000000000000	0.13562300000000	0.00000000000000	0.00000000000000	0.00000000000000	0.00000000000000	0.00000000000000	0.00000000000000	0.00000000000000	27.35451200000000	0.00000000000000	0.00000000000000	0.00000000000000	0.00000000000000	
3.39997900000000	30.87978200000000	761.33965899999998	56.77490500000000	0.32699400000000	0.00000000000000	0.13554400000000	0.00000000000000	0.00000000000000	0.00000000000000	0.00000000000000	0.00000000000000	0.00000000000000	0.00000000000000	27.56714600000000	0.00000000000000	0.00000000000000	0.00000000000000	0.00000000000000	
3.40164700000000	30.51003900000000	764.63825499999996	57.04239900000000	0.32664500000000	0.00000000000000	0.13546300000000	0.00000000000000	0.00000000000000	0.00000000000000	0.00000000000000	0.00000000000000	0.00000000000000	0.00000000000000	27.77503600000000	0.00000000000000	0.00000000000000	0.00000000000000	0.00000000000000	
3.40331800000000	30.14833800000000	767.78387199999997	57.30072600000000	0.32632000000000	0.00000000000000	0.13538200000000	0.00000000000000	0.00000000000000	0.00000000000000	0.00000000000000	0.00000000000000	0.00000000000000	0.00000000000000	27.97746200000000	0.00000000000000	0.00000000000000	0.00000000000000	0.00000000000000	
3.40498400000000	29.79432700000000	770.77263000000005	57.54883500000000	0.32601700000000	0.00000000000000	0.13529900000000	0.00000000000000	0.00000000000000	0.00000000000000	0.00000000000000	0.00000000000000	0.00000000000000	0.00000000000000	28.17371200000000	0.00000000000000	0.00000000000000	0.00000000000000	0.00000000000000	
3.40665300000000	29.44761900000000	773.60096799999997	57.78569700000000	0.32573200000000	0.00000000000000	0.13521500000000	0.00000000000000	0.00000000000000	0.00000000000000	0.00000000000000	0.00000000000000	0.00000000000000	0.00000000000000	28.36308800000000	0.00000000000000	0.00000000000000	0.00000000000000	0.00000000000000	
3.40831100000000	29.10779400000000	776.26565500000004	58.01031500000000	0.32546300000000	0.00000000000000	0.13513000000000	0.00000000000000	0.00000000000000	0.00000000000000	0.00000000000000	0.00000000000000	0.00000000000000	0.00000000000000	28.54490600000000	0.00000000000000	0.00000000000000	0.00000000000000	0.00000000000000	
3.40998400000000	28.77440900000000	778.76380300000005	58.22172300000000	0.32520800000000	0.00000000000000	0.13504400000000	0.00000000000000	0.00000000000000	0.00000000000000	0.00000000000000	0.00000000000000	0.00000000000000	0.00000000000000	28.71850600000000	0.00000000000000	0.00000000000000	0.00000000000000	0.00000000000000	
3.41165300000000	28.44699500000000	781.09288200000003	58.41900300000000	0.32496300000000	0.00000000000000	0.13495700000000	0.00000000000000	0.00000000000000	0.00000000000000	0.00000000000000	0.00000000000000	0.00000000000000	0.00000000000000	28.88325000000000	0.00000000000000	0.00000000000000	0.00000000000000	0.00000000000000	
3.41331800000000	28.12507100000000	783.25072499999999	58.60128200000000	0.32472600000000	0.00000000000000	0.13486900000000	0.00000000000000	0.00000000000000	0.00000000000000	0.00000000000000	0.00000000000000	0.00000000000000	0.00000000000000	29.03852900000000	0.00000000000000	0.00000000000000	0.00000000000000	0.00000000000000	
3.41498600000000	27.80813900000000	785.23553800000002	58.76774200000000	0.32449400000000	0.00000000000000	0.13478000000000	0.00000000000000	0.00000000000000	0.00000000000000	0.00000000000000	0.00000000000000	0.00000000000000	0.00000000000000	29.18376700000000	0.00000000000000	0.00000000000000	0.00000000000000	0.00000000000000	
3.41665400000000	27.49569700000000	787.04590900000005	58.91762400000000	0.32426500000000	0.00000000000000	0.13469000000000	0.00000000000000	0.00000000000000	0.00000000000000	0.00000000000000	0.00000000000000	0.00000000000000	0.00000000000000	29.31842000000000	0.00000000000000	0.00000000000000	0.00000000000000	0.00000000000000	
3.41831800000000	27.18723900000000	788.68080799999996	59.05023700000000	0.32403500000000	0.00000000000000	0.13459900000000	0.00000000000000	0.00000000000000	0.00000000000000	0.00000000000000	0.00000000000000	0.00000000000000	0.00000000000000	29.44198500000000	0.00000000000000	0.00000000000000	0.00000000000000	0.00000000000000	
3.41997900000000	26.88225700000000	790.13959499999999	59.16495200000000	0.32380200000000	0.00000000000000	0.13450800000000	0.00000000000000	0.00000000000000	0.00000000000000	0.00000000000000	0.00000000000000	0.00000000000000	0.00000000000000	29.55399600000000	0.00000000000000	0.00000000000000	0.00000000000000	0.00000000000000	
3.42165000000000	26.58025200000000	791.42201999999997	59.26121800000000	0.32356300000000	0.00000000000000	0.13441600000000	0.00000000000000	0.00000000000000	0.00000000000000	0.00000000000000	0.00000000000000	0.00000000000000	0.00000000000000	29.65403300000000	0.00000000000000	0.00000000000000	0.00000000000000	0.00000000000000	
